{
	"asset":{
		"generator":"Khronos glTF Blender I/O v3.5.30",
		"version":"2.0"
	},
	"scene":0,
	"scenes":[
		{
			"name":"Scene",
			"nodes":[
				0
			]
		}
	],
	"nodes":[
		{
			"mesh":0,
			"name":"Plane.001",
			"translation":[
				0.48236846923828125,
				-0.31279754638671875,
				1.5641212463378906
			]
		}
	],
	"materials":[
		{
			"doubleSided":true,
			"name":"Material.035",
			"pbrMetallicRoughness":{
				"baseColorFactor":[
					0.800000011920929,
					0.800000011920929,
					0.800000011920929,
					1
				],
				"metallicFactor":0,
				"roughnessFactor":0.9740740656852722
			}
		}
	],
	"meshes":[
		{
			"name":"Plane.151",
			"primitives":[
				{
					"attributes":{
						"POSITION":0,
						"TEXCOORD_0":1,
						"NORMAL":2
					},
					"indices":3,
					"material":0
				}
			]
		}
	],
	"accessors":[
		{
			"bufferView":0,
			"componentType":5126,
			"count":4560,
			"max":[
				14.778257369995117,
				12.624483108520508,
				-6.222158908843994
			],
			"min":[
				-7.453599452972412,
				7.245063304901123,
				-12.785287857055664
			],
			"type":"VEC3"
		},
		{
			"bufferView":1,
			"componentType":5126,
			"count":4560,
			"type":"VEC2"
		},
		{
			"bufferView":2,
			"componentType":5126,
			"count":4560,
			"type":"VEC3"
		},
		{
			"bufferView":3,
			"componentType":5123,
			"count":4560,
			"type":"SCALAR"
		}
	],
	"bufferViews":[
		{
			"buffer":0,
			"byteLength":54720,
			"byteOffset":0,
			"target":34962
		},
		{
			"buffer":0,
			"byteLength":36480,
			"byteOffset":54720,
			"target":34962
		},
		{
			"buffer":0,
			"byteLength":54720,
			"byteOffset":91200,
			"target":34962
		},
		{
			"buffer":0,
			"byteLength":9120,
			"byteOffset":145920,
			"target":34963
		}
	],
	"buffers":[
		{
			"byteLength":155040,
			"uri":"data:application/octet-stream;base64,"
		}
	]
}
