{
	"asset":{
		"generator":"Khronos glTF Blender I/O v3.5.30",
		"version":"2.0"
	},
	"extensionsUsed":[
		"KHR_materials_clearcoat",
		"KHR_materials_transmission",
		"KHR_materials_specular",
		"KHR_materials_ior"
	],
	"scene":0,
	"scenes":[
		{
			"name":"Scene",
			"nodes":[
				11
			]
		}
	],
	"nodes":[
		{
			"mesh":0,
			"name":"win door l.001",
			"translation":[
				-0.15476186573505402,
				0.6963286399841309,
				-0.7349133491516113
			]
		},
		{
			"children":[
				0
			],
			"mesh":1,
			"name":"door l",
			"translation":[
				0.9139899611473083,
				0.6834518909454346,
				0.6375190019607544
			]
		},
		{
			"mesh":2,
			"name":"win door r.001",
			"translation":[
				0.15476183593273163,
				0.6963286399841309,
				-0.7349134087562561
			]
		},
		{
			"children":[
				2
			],
			"mesh":3,
			"name":"door r",
			"translation":[
				-0.9139900803565979,
				0.6834518909454346,
				0.637519121170044
			]
		},
		{
			"mesh":4,
			"name":"interior",
			"rotation":[
				0,
				0,
				-0.7071066498756409,
				0.70710688829422
			],
			"scale":[
				0.4447769522666931,
				0.3981696665287018,
				0.3981696665287018
			],
			"translation":[
				0.941368043422699,
				0.6001321077346802,
				-0.07444725185632706
			]
		},
		{
			"mesh":5,
			"name":"number",
			"translation":[
				0,
				0.7933153510093689,
				-1.7683265209197998
			]
		},
		{
			"mesh":6,
			"name":"wheel bl",
			"rotation":[
				0,
				0.7071068286895752,
				0,
				0.7071067094802856
			],
			"scale":[
				0.32487770915031433,
				0.32487770915031433,
				0.32487770915031433
			],
			"translation":[
				0.7817087173461914,
				0.3252466320991516,
				-1.2408537864685059
			]
		},
		{
			"mesh":7,
			"name":"wheel br",
			"rotation":[
				0,
				0.7071068286895752,
				0,
				0.7071067094802856
			],
			"scale":[
				0.32487770915031433,
				0.32487770915031433,
				0.32487770915031433
			],
			"translation":[
				-0.781708836555481,
				0.3252466320991516,
				-1.2408536672592163
			]
		},
		{
			"mesh":8,
			"name":"wheel fl",
			"rotation":[
				0,
				0.7071068286895752,
				0,
				0.7071067094802856
			],
			"scale":[
				0.32487770915031433,
				0.32487770915031433,
				0.32487770915031433
			],
			"translation":[
				0.7817087173461914,
				0.3252466320991516,
				1.0714701414108276
			]
		},
		{
			"mesh":9,
			"name":"wheel fr",
			"rotation":[
				0,
				0.7071068286895752,
				0,
				0.7071067094802856
			],
			"scale":[
				0.32487770915031433,
				0.32487770915031433,
				0.32487770915031433
			],
			"translation":[
				-0.781708836555481,
				0.3252466320991516,
				1.0714701414108276
			]
		},
		{
			"mesh":10,
			"name":"windows"
		},
		{
			"children":[
				1,
				3,
				4,
				5,
				6,
				7,
				8,
				9,
				10
			],
			"mesh":11,
			"name":"car body",
			"rotation":[
				0,
				-0.7071065902709961,
				0,
				0.7071069478988647
			],
			"translation":[
				0,
				0,
				0.08045371621847153
			]
		}
	],
	"materials":[
		{
			"alphaMode":"BLEND",
			"doubleSided":true,
			"extensions":{
				"KHR_materials_clearcoat":{
					"clearcoatFactor":0.03181818127632141,
					"clearcoatRoughnessFactor":0.37454500794410706
				},
				"KHR_materials_transmission":{
					"transmissionFactor":0.9663636684417725
				},
				"KHR_materials_specular":{
					"specularColorFactor":[
						1,
						1,
						1
					]
				},
				"KHR_materials_ior":{
					"ior":1
				}
			},
			"name":"WINDOW",
			"pbrMetallicRoughness":{
				"baseColorTexture":{
					"index":0
				},
				"metallicFactor":0,
				"roughnessFactor":0
			}
		},
		{
			"doubleSided":true,
			"extensions":{
				"KHR_materials_specular":{
					"specularColorFactor":[
						0.02371357561437425,
						0.02371357561437425,
						0.02371357561437425
					]
				},
				"KHR_materials_ior":{
					"ior":1.4500000476837158
				}
			},
			"name":"BASIC COLOR",
			"pbrMetallicRoughness":{
				"baseColorTexture":{
					"index":1
				},
				"metallicFactor":0.5
			}
		}
	],
	"meshes":[
		{
			"name":"Circle.160",
			"primitives":[
				{
					"attributes":{
						"POSITION":0,
						"TEXCOORD_0":1,
						"NORMAL":2
					},
					"indices":3,
					"material":0
				}
			]
		},
		{
			"name":"Circle.168",
			"primitives":[
				{
					"attributes":{
						"POSITION":4,
						"TEXCOORD_0":5,
						"NORMAL":6
					},
					"indices":7,
					"material":1
				}
			]
		},
		{
			"name":"Circle.159",
			"primitives":[
				{
					"attributes":{
						"POSITION":8,
						"TEXCOORD_0":9,
						"NORMAL":10
					},
					"indices":11,
					"material":0
				}
			]
		},
		{
			"name":"Circle.167",
			"primitives":[
				{
					"attributes":{
						"POSITION":12,
						"TEXCOORD_0":13,
						"NORMAL":14
					},
					"indices":15,
					"material":1
				}
			]
		},
		{
			"name":"Circle.166",
			"primitives":[
				{
					"attributes":{
						"POSITION":16,
						"TEXCOORD_0":17,
						"NORMAL":18
					},
					"indices":19,
					"material":1
				}
			]
		},
		{
			"name":"Circle.165",
			"primitives":[
				{
					"attributes":{
						"POSITION":20,
						"TEXCOORD_0":21,
						"NORMAL":22
					},
					"indices":23,
					"material":1
				}
			]
		},
		{
			"name":"Circle.164",
			"primitives":[
				{
					"attributes":{
						"POSITION":24,
						"TEXCOORD_0":25,
						"NORMAL":26
					},
					"indices":27,
					"material":1
				}
			]
		},
		{
			"name":"Circle.163",
			"primitives":[
				{
					"attributes":{
						"POSITION":28,
						"TEXCOORD_0":29,
						"NORMAL":30
					},
					"indices":31,
					"material":1
				}
			]
		},
		{
			"name":"Circle.162",
			"primitives":[
				{
					"attributes":{
						"POSITION":32,
						"TEXCOORD_0":33,
						"NORMAL":34
					},
					"indices":27,
					"material":1
				}
			]
		},
		{
			"name":"Circle.161",
			"primitives":[
				{
					"attributes":{
						"POSITION":35,
						"TEXCOORD_0":36,
						"NORMAL":37
					},
					"indices":31,
					"material":1
				}
			]
		},
		{
			"name":"Circle.158",
			"primitives":[
				{
					"attributes":{
						"POSITION":38,
						"TEXCOORD_0":39,
						"NORMAL":40
					},
					"indices":41,
					"material":0
				}
			]
		},
		{
			"name":"Circle.169",
			"primitives":[
				{
					"attributes":{
						"POSITION":42,
						"TEXCOORD_0":43,
						"NORMAL":44
					},
					"indices":45,
					"material":1
				}
			]
		}
	],
	"textures":[
		{
			"sampler":0,
			"source":0
		},
		{
			"sampler":0,
			"source":0
		}
	],
	"images":[
		{
			"bufferView":4,
			"mimeType":"image/png",
			"name":"001_COLOR_BASIC"
		}
	],
	"accessors":[
		{
			"bufferView":0,
			"componentType":5126,
			"count":4,
			"max":[
				0.0739404559135437,
				0.2884916663169861,
				0.6294324398040771
			],
			"min":[
				-0.0739404559135437,
				-0.2884916663169861,
				-0.6294324398040771
			],
			"type":"VEC3"
		},
		{
			"bufferView":1,
			"componentType":5126,
			"count":4,
			"type":"VEC2"
		},
		{
			"bufferView":2,
			"componentType":5126,
			"count":4,
			"type":"VEC3"
		},
		{
			"bufferView":3,
			"componentType":5123,
			"count":6,
			"type":"SCALAR"
		},
		{
			"bufferView":5,
			"componentType":5126,
			"count":296,
			"max":[
				0.17433108389377594,
				1.0117037296295166,
				0.012738406658172607
			],
			"min":[
				-0.22870230674743652,
				-0.40165239572525024,
				-1.427574872970581
			],
			"type":"VEC3"
		},
		{
			"bufferView":6,
			"componentType":5126,
			"count":296,
			"type":"VEC2"
		},
		{
			"bufferView":7,
			"componentType":5126,
			"count":296,
			"type":"VEC3"
		},
		{
			"bufferView":8,
			"componentType":5123,
			"count":468,
			"type":"SCALAR"
		},
		{
			"bufferView":9,
			"componentType":5126,
			"count":4,
			"max":[
				0.0739404559135437,
				0.2884916067123413,
				0.6294324994087219
			],
			"min":[
				-0.0739404559135437,
				-0.2884916365146637,
				-0.6294325590133667
			],
			"type":"VEC3"
		},
		{
			"bufferView":10,
			"componentType":5126,
			"count":4,
			"type":"VEC2"
		},
		{
			"bufferView":11,
			"componentType":5126,
			"count":4,
			"type":"VEC3"
		},
		{
			"bufferView":12,
			"componentType":5123,
			"count":6,
			"type":"SCALAR"
		},
		{
			"bufferView":13,
			"componentType":5126,
			"count":296,
			"max":[
				0.22870230674743652,
				1.011703610420227,
				0.012738406658172607
			],
			"min":[
				-0.1743314266204834,
				-0.40165236592292786,
				-1.4275751113891602
			],
			"type":"VEC3"
		},
		{
			"bufferView":14,
			"componentType":5126,
			"count":296,
			"type":"VEC2"
		},
		{
			"bufferView":15,
			"componentType":5126,
			"count":296,
			"type":"VEC3"
		},
		{
			"bufferView":16,
			"componentType":5123,
			"count":468,
			"type":"SCALAR"
		},
		{
			"bufferView":17,
			"componentType":5126,
			"count":634,
			"max":[
				0.8335265517234802,
				-0.3350330889225006,
				2.4331023693084717
			],
			"min":[
				-1.8726791143417358,
				-4.393444061279297,
				-1.768876552581787
			],
			"type":"VEC3"
		},
		{
			"bufferView":18,
			"componentType":5126,
			"count":634,
			"type":"VEC2"
		},
		{
			"bufferView":19,
			"componentType":5126,
			"count":634,
			"type":"VEC3"
		},
		{
			"bufferView":20,
			"componentType":5123,
			"count":1032,
			"type":"SCALAR"
		},
		{
			"bufferView":21,
			"componentType":5126,
			"count":20,
			"max":[
				0.20617307722568512,
				0.06054668873548508,
				0.007241564337164164
			],
			"min":[
				-0.20617307722568512,
				-0.0996435210108757,
				-0.003009157720953226
			],
			"type":"VEC3"
		},
		{
			"bufferView":22,
			"componentType":5126,
			"count":20,
			"type":"VEC2"
		},
		{
			"bufferView":23,
			"componentType":5126,
			"count":20,
			"type":"VEC3"
		},
		{
			"bufferView":24,
			"componentType":5123,
			"count":30,
			"type":"SCALAR"
		},
		{
			"bufferView":25,
			"componentType":5126,
			"count":481,
			"max":[
				1,
				0.9946146011352539,
				0.3963618278503418
			],
			"min":[
				-1,
				-0.9946146011352539,
				-0.3963620066642761
			],
			"type":"VEC3"
		},
		{
			"bufferView":26,
			"componentType":5126,
			"count":481,
			"type":"VEC2"
		},
		{
			"bufferView":27,
			"componentType":5126,
			"count":481,
			"type":"VEC3"
		},
		{
			"bufferView":28,
			"componentType":5123,
			"count":1434,
			"type":"SCALAR"
		},
		{
			"bufferView":29,
			"componentType":5126,
			"count":481,
			"max":[
				0.9999998807907104,
				0.9946146011352539,
				0.3963620066642761
			],
			"min":[
				-0.9999998807907104,
				-0.9946146011352539,
				-0.3963618278503418
			],
			"type":"VEC3"
		},
		{
			"bufferView":30,
			"componentType":5126,
			"count":481,
			"type":"VEC2"
		},
		{
			"bufferView":31,
			"componentType":5126,
			"count":481,
			"type":"VEC3"
		},
		{
			"bufferView":32,
			"componentType":5123,
			"count":1434,
			"type":"SCALAR"
		},
		{
			"bufferView":33,
			"componentType":5126,
			"count":481,
			"max":[
				1,
				0.9946146011352539,
				0.3963618278503418
			],
			"min":[
				-1,
				-0.9946146011352539,
				-0.3963620066642761
			],
			"type":"VEC3"
		},
		{
			"bufferView":34,
			"componentType":5126,
			"count":481,
			"type":"VEC2"
		},
		{
			"bufferView":35,
			"componentType":5126,
			"count":481,
			"type":"VEC3"
		},
		{
			"bufferView":36,
			"componentType":5126,
			"count":481,
			"max":[
				0.9999998807907104,
				0.9946146011352539,
				0.3963620066642761
			],
			"min":[
				-0.9999998807907104,
				-0.9946146011352539,
				-0.3963618278503418
			],
			"type":"VEC3"
		},
		{
			"bufferView":37,
			"componentType":5126,
			"count":481,
			"type":"VEC2"
		},
		{
			"bufferView":38,
			"componentType":5126,
			"count":481,
			"type":"VEC3"
		},
		{
			"bufferView":39,
			"componentType":5126,
			"count":18,
			"max":[
				0.8328425288200378,
				1.669926404953003,
				0.665921688079834
			],
			"min":[
				-0.8328425884246826,
				1.0708999633789062,
				-1.7224246263504028
			],
			"type":"VEC3"
		},
		{
			"bufferView":40,
			"componentType":5126,
			"count":18,
			"type":"VEC2"
		},
		{
			"bufferView":41,
			"componentType":5126,
			"count":18,
			"type":"VEC3"
		},
		{
			"bufferView":42,
			"componentType":5123,
			"count":30,
			"type":"SCALAR"
		},
		{
			"bufferView":43,
			"componentType":5126,
			"count":1195,
			"max":[
				0.9238482713699341,
				1.7160087823867798,
				1.6670520305633545
			],
			"min":[
				-0.9238486886024475,
				0.20235931873321533,
				-1.7920552492141724
			],
			"type":"VEC3"
		},
		{
			"bufferView":44,
			"componentType":5126,
			"count":1195,
			"type":"VEC2"
		},
		{
			"bufferView":45,
			"componentType":5126,
			"count":1195,
			"type":"VEC3"
		},
		{
			"bufferView":46,
			"componentType":5123,
			"count":1956,
			"type":"SCALAR"
		}
	],
	"bufferViews":[
		{
			"buffer":0,
			"byteLength":48,
			"byteOffset":0,
			"target":34962
		},
		{
			"buffer":0,
			"byteLength":32,
			"byteOffset":48,
			"target":34962
		},
		{
			"buffer":0,
			"byteLength":48,
			"byteOffset":80,
			"target":34962
		},
		{
			"buffer":0,
			"byteLength":12,
			"byteOffset":128,
			"target":34963
		},
		{
			"buffer":0,
			"byteLength":95679,
			"byteOffset":140
		},
		{
			"buffer":0,
			"byteLength":3552,
			"byteOffset":95820,
			"target":34962
		},
		{
			"buffer":0,
			"byteLength":2368,
			"byteOffset":99372,
			"target":34962
		},
		{
			"buffer":0,
			"byteLength":3552,
			"byteOffset":101740,
			"target":34962
		},
		{
			"buffer":0,
			"byteLength":936,
			"byteOffset":105292,
			"target":34963
		},
		{
			"buffer":0,
			"byteLength":48,
			"byteOffset":106228,
			"target":34962
		},
		{
			"buffer":0,
			"byteLength":32,
			"byteOffset":106276,
			"target":34962
		},
		{
			"buffer":0,
			"byteLength":48,
			"byteOffset":106308,
			"target":34962
		},
		{
			"buffer":0,
			"byteLength":12,
			"byteOffset":106356,
			"target":34963
		},
		{
			"buffer":0,
			"byteLength":3552,
			"byteOffset":106368,
			"target":34962
		},
		{
			"buffer":0,
			"byteLength":2368,
			"byteOffset":109920,
			"target":34962
		},
		{
			"buffer":0,
			"byteLength":3552,
			"byteOffset":112288,
			"target":34962
		},
		{
			"buffer":0,
			"byteLength":936,
			"byteOffset":115840,
			"target":34963
		},
		{
			"buffer":0,
			"byteLength":7608,
			"byteOffset":116776,
			"target":34962
		},
		{
			"buffer":0,
			"byteLength":5072,
			"byteOffset":124384,
			"target":34962
		},
		{
			"buffer":0,
			"byteLength":7608,
			"byteOffset":129456,
			"target":34962
		},
		{
			"buffer":0,
			"byteLength":2064,
			"byteOffset":137064,
			"target":34963
		},
		{
			"buffer":0,
			"byteLength":240,
			"byteOffset":139128,
			"target":34962
		},
		{
			"buffer":0,
			"byteLength":160,
			"byteOffset":139368,
			"target":34962
		},
		{
			"buffer":0,
			"byteLength":240,
			"byteOffset":139528,
			"target":34962
		},
		{
			"buffer":0,
			"byteLength":60,
			"byteOffset":139768,
			"target":34963
		},
		{
			"buffer":0,
			"byteLength":5772,
			"byteOffset":139828,
			"target":34962
		},
		{
			"buffer":0,
			"byteLength":3848,
			"byteOffset":145600,
			"target":34962
		},
		{
			"buffer":0,
			"byteLength":5772,
			"byteOffset":149448,
			"target":34962
		},
		{
			"buffer":0,
			"byteLength":2868,
			"byteOffset":155220,
			"target":34963
		},
		{
			"buffer":0,
			"byteLength":5772,
			"byteOffset":158088,
			"target":34962
		},
		{
			"buffer":0,
			"byteLength":3848,
			"byteOffset":163860,
			"target":34962
		},
		{
			"buffer":0,
			"byteLength":5772,
			"byteOffset":167708,
			"target":34962
		},
		{
			"buffer":0,
			"byteLength":2868,
			"byteOffset":173480,
			"target":34963
		},
		{
			"buffer":0,
			"byteLength":5772,
			"byteOffset":176348,
			"target":34962
		},
		{
			"buffer":0,
			"byteLength":3848,
			"byteOffset":182120,
			"target":34962
		},
		{
			"buffer":0,
			"byteLength":5772,
			"byteOffset":185968,
			"target":34962
		},
		{
			"buffer":0,
			"byteLength":5772,
			"byteOffset":191740,
			"target":34962
		},
		{
			"buffer":0,
			"byteLength":3848,
			"byteOffset":197512,
			"target":34962
		},
		{
			"buffer":0,
			"byteLength":5772,
			"byteOffset":201360,
			"target":34962
		},
		{
			"buffer":0,
			"byteLength":216,
			"byteOffset":207132,
			"target":34962
		},
		{
			"buffer":0,
			"byteLength":144,
			"byteOffset":207348,
			"target":34962
		},
		{
			"buffer":0,
			"byteLength":216,
			"byteOffset":207492,
			"target":34962
		},
		{
			"buffer":0,
			"byteLength":60,
			"byteOffset":207708,
			"target":34963
		},
		{
			"buffer":0,
			"byteLength":14340,
			"byteOffset":207768,
			"target":34962
		},
		{
			"buffer":0,
			"byteLength":9560,
			"byteOffset":222108,
			"target":34962
		},
		{
			"buffer":0,
			"byteLength":14340,
			"byteOffset":231668,
			"target":34962
		},
		{
			"buffer":0,
			"byteLength":3912,
			"byteOffset":246008,
			"target":34963
		}
	],
	"samplers":[
		{
			"magFilter":9729,
			"minFilter":9987
		}
	],
	"buffers":[
		{
			"byteLength":249920,
			"uri":"data:application/octet-stream;base64,"
		}
	]
}
